<svg width="25" height="24" viewBox="0 0 25 24" fill="none" xmlns="http://www.w3.org/2000/svg">
<g clip-path="url(#clip0_1139_3020)">
<rect x="0.333984" width="24" height="24" rx="4" fill="#121212"/>
<path d="M21.334 1.5C21.7318 1.5 22.1133 1.65804 22.3946 1.93934C22.6759 2.22064 22.834 2.60218 22.834 3V21C22.834 21.3978 22.6759 21.7794 22.3946 22.0607C22.1133 22.342 21.7318 22.5 21.334 22.5H3.33398C2.93616 22.5 2.55463 22.342 2.27332 22.0607C1.99202 21.7794 1.83398 21.3978 1.83398 21V3C1.83398 2.60218 1.99202 2.22064 2.27332 1.93934C2.55463 1.65804 2.93616 1.5 3.33398 1.5H21.334ZM3.33398 0C2.53833 0 1.77527 0.316071 1.21266 0.87868C0.650055 1.44129 0.333984 2.20435 0.333984 3L0.333984 21C0.333984 21.7956 0.650055 22.5587 1.21266 23.1213C1.77527 23.6839 2.53833 24 3.33398 24H21.334C22.1296 24 22.8927 23.6839 23.4553 23.1213C24.0179 22.5587 24.334 21.7956 24.334 21V3C24.334 2.20435 24.0179 1.44129 23.4553 0.87868C22.8927 0.316071 22.1296 0 21.334 0L3.33398 0Z" fill="#121212"/>
<path d="M10.6144 6.969C10.6842 7.03867 10.7396 7.12143 10.7774 7.21255C10.8153 7.30366 10.8347 7.40135 10.8347 7.5C10.8347 7.59865 10.8153 7.69633 10.7774 7.78745C10.7396 7.87857 10.6842 7.96133 10.6144 8.031L6.64387 12L10.6144 15.969C10.7552 16.1098 10.8343 16.3008 10.8343 16.5C10.8343 16.6992 10.7552 16.8902 10.6144 17.031C10.4735 17.1718 10.2825 17.2509 10.0834 17.2509C9.88421 17.2509 9.6932 17.1718 9.55237 17.031L5.05237 12.531C4.98253 12.4613 4.92711 12.3786 4.8893 12.2874C4.85149 12.1963 4.83203 12.0986 4.83203 12C4.83203 11.9013 4.85149 11.8037 4.8893 11.7125C4.92711 11.6214 4.98253 11.5387 5.05237 11.469L9.55237 6.969C9.62204 6.89915 9.7048 6.84374 9.79592 6.80593C9.88704 6.76812 9.98472 6.74866 10.0834 6.74866C10.182 6.74866 10.2797 6.76812 10.3708 6.80593C10.4619 6.84374 10.5447 6.89915 10.6144 6.969ZM14.0524 6.969C13.9825 7.03867 13.9271 7.12143 13.8893 7.21255C13.8515 7.30366 13.832 7.40135 13.832 7.5C13.832 7.59865 13.8515 7.69633 13.8893 7.78745C13.9271 7.87857 13.9825 7.96133 14.0524 8.031L18.0229 12L14.0524 15.969C13.9115 16.1098 13.8324 16.3008 13.8324 16.5C13.8324 16.6992 13.9115 16.8902 14.0524 17.031C14.1932 17.1718 14.3842 17.2509 14.5834 17.2509C14.7825 17.2509 14.9735 17.1718 15.1144 17.031L19.6144 12.531C19.6842 12.4613 19.7396 12.3786 19.7774 12.2874C19.8152 12.1963 19.8347 12.0986 19.8347 12C19.8347 11.9013 19.8152 11.8037 19.7774 11.7125C19.7396 11.6214 19.6842 11.5387 19.6144 11.469L15.1144 6.969C15.0447 6.89915 14.9619 6.84374 14.8708 6.80593C14.7797 6.76812 14.682 6.74866 14.5834 6.74866C14.4847 6.74866 14.387 6.76812 14.2959 6.80593C14.2048 6.84374 14.122 6.89915 14.0524 6.969Z" fill="white"/>
</g>
<defs>
<clipPath id="clip0_1139_3020">
<rect x="0.333984" width="24" height="24" rx="4" fill="white"/>
</clipPath>
</defs>
</svg>
