<svg width="24" height="24" viewBox="0 0 24 24" fill="none" xmlns="http://www.w3.org/2000/svg">
<g clip-path="url(#clip0_1143_3668)">
<rect width="24" height="24" rx="4" fill="white"/>
<path d="M21 1.5C21.3978 1.5 21.7794 1.65804 22.0607 1.93934C22.342 2.22064 22.5 2.60218 22.5 3V21C22.5 21.3978 22.342 21.7794 22.0607 22.0607C21.7794 22.342 21.3978 22.5 21 22.5H3C2.60218 22.5 2.22064 22.342 1.93934 22.0607C1.65804 21.7794 1.5 21.3978 1.5 21V3C1.5 2.60218 1.65804 2.22064 1.93934 1.93934C2.22064 1.65804 2.60218 1.5 3 1.5H21ZM3 0C2.20435 0 1.44129 0.316071 0.87868 0.87868C0.316071 1.44129 0 2.20435 0 3L0 21C0 21.7956 0.316071 22.5587 0.87868 23.1213C1.44129 23.6839 2.20435 24 3 24H21C21.7956 24 22.5587 23.6839 23.1213 23.1213C23.6839 22.5587 24 21.7956 24 21V3C24 2.20435 23.6839 1.44129 23.1213 0.87868C22.5587 0.316071 21.7956 0 21 0L3 0Z" fill="#121212"/>
<path d="M10.2804 6.969C10.3502 7.03867 10.4056 7.12143 10.4435 7.21255C10.4813 7.30366 10.5007 7.40135 10.5007 7.5C10.5007 7.59865 10.4813 7.69633 10.4435 7.78745C10.4056 7.87857 10.3502 7.96133 10.2804 8.031L6.30989 12L10.2804 15.969C10.4212 16.1098 10.5003 16.3008 10.5003 16.5C10.5003 16.6992 10.4212 16.8902 10.2804 17.031C10.1396 17.1718 9.94855 17.2509 9.74939 17.2509C9.55022 17.2509 9.35922 17.1718 9.21839 17.031L4.71839 12.531C4.64854 12.4613 4.59313 12.3786 4.55532 12.2874C4.51751 12.1963 4.49805 12.0986 4.49805 12C4.49805 11.9013 4.51751 11.8037 4.55532 11.7125C4.59313 11.6214 4.64854 11.5387 4.71839 11.469L9.21839 6.969C9.28806 6.89915 9.37082 6.84374 9.46194 6.80593C9.55305 6.76812 9.65074 6.74866 9.74939 6.74866C9.84804 6.74866 9.94572 6.76812 10.0368 6.80593C10.128 6.84374 10.2107 6.89915 10.2804 6.969ZM13.7184 6.969C13.6485 7.03867 13.5931 7.12143 13.5553 7.21255C13.5175 7.30366 13.498 7.40135 13.498 7.5C13.498 7.59865 13.5175 7.69633 13.5553 7.78745C13.5931 7.87857 13.6485 7.96133 13.7184 8.031L17.6889 12L13.7184 15.969C13.5776 16.1098 13.4984 16.3008 13.4984 16.5C13.4984 16.6992 13.5776 16.8902 13.7184 17.031C13.8592 17.1718 14.0502 17.2509 14.2494 17.2509C14.4486 17.2509 14.6396 17.1718 14.7804 17.031L19.2804 12.531C19.3502 12.4613 19.4056 12.3786 19.4435 12.2874C19.4813 12.1963 19.5007 12.0986 19.5007 12C19.5007 11.9013 19.4813 11.8037 19.4435 11.7125C19.4056 11.6214 19.3502 11.5387 19.2804 11.469L14.7804 6.969C14.7107 6.89915 14.628 6.84374 14.5368 6.80593C14.4457 6.76812 14.348 6.74866 14.2494 6.74866C14.1507 6.74866 14.0531 6.76812 13.9619 6.80593C13.8708 6.84374 13.7881 6.89915 13.7184 6.969Z" fill="#121212"/>
</g>
<defs>
<clipPath id="clip0_1143_3668">
<rect width="24" height="24" rx="4" fill="white"/>
</clipPath>
</defs>
</svg>
