<svg width="56" height="56" viewBox="0 0 56 56" fill="none" xmlns="http://www.w3.org/2000/svg">
<rect width="56" height="56" rx="8" fill="url(#paint0_linear_1139_3534)"/>
<path fill-rule="evenodd" clip-rule="evenodd" d="M26.253 12.0893C24.6126 12.3171 22.8864 12.7351 21.9272 13.137C20.8457 13.59 19.4605 14.3856 19.2982 14.6471C18.8796 15.3212 18.632 18.8932 18.8512 21.0949C19.1072 23.6661 19.905 26.243 21.1032 28.3692L21.5532 29.1676L21.8127 27.8705C22.1217 26.3256 22.4137 25.2272 22.8094 24.1211C24.4565 19.5164 27.4486 16.0279 31.9792 13.4298C32.7862 12.967 32.9672 12.7901 32.8082 12.6195C32.7836 12.5932 32.2159 12.4795 31.5465 12.367C30.877 12.2545 30.1047 12.123 29.8302 12.0746C29.2266 11.9686 27.059 11.9774 26.253 12.0893ZM34.2114 14.057C29.868 15.7758 26.5274 18.5228 24.3506 22.1656C24.1293 22.5359 23.9937 22.8326 24.0227 22.883C24.0517 22.9334 24.334 22.8709 24.7051 22.7319C28.7438 21.2192 33.1191 20.9268 36.9844 21.9113C38.0298 22.1775 39.7099 22.7858 40.7117 23.2606C41.3874 23.5809 43.1732 24.5691 43.5766 24.8459C43.6653 24.9069 43.6745 24.8841 43.641 24.6857C43.5479 24.1336 43.0977 22.6568 42.8112 21.9633C42.3377 20.8169 41.9791 20.1415 41.3102 19.136C39.902 17.0189 38.021 15.2673 35.8624 14.0629C35.5198 13.8717 35.1953 13.7181 35.1414 13.7216C35.0875 13.725 34.669 13.876 34.2114 14.057ZM16.9609 16.4228C14.7892 18.4354 13.0923 21.4041 12.4435 24.3258C12.1836 25.4962 12 26.9766 12 27.9021C12 28.6799 12.0051 28.711 12.1802 29.0007C12.421 29.3989 14.5168 30.9552 15.9038 31.7658C18.7379 33.4221 22.1825 34.3435 25.1645 34.2431C25.5067 34.2317 25.5382 34.2146 25.4722 34.0767C25.4318 33.9922 25.0108 33.5849 24.5365 33.1716C20.5838 29.7269 18.2392 25.4511 17.5647 20.4573C17.4628 19.703 17.4202 19.0545 17.397 17.905C17.3798 17.0574 17.3488 16.3086 17.328 16.2408C17.2996 16.1482 17.2084 16.1935 16.9609 16.4228ZM30.5234 21.9921C30.5234 22.1357 30.7175 22.3492 31.3692 22.9222C33.3812 24.6918 34.7813 26.3777 35.9494 28.4378C37.7399 31.5952 38.5636 34.838 38.5647 38.733C38.565 39.8762 38.5687 39.9129 38.6843 39.9129C38.75 39.9129 39.0058 39.711 39.2528 39.4644C41.6227 37.0973 43.2085 34.0496 43.7459 30.8292C43.8953 29.9336 44 28.7905 44 28.0544C44 27.2231 43.9381 27.1189 43.0198 26.4063C40.2961 24.2927 37.8744 23.0991 35.0711 22.4885C34.4164 22.346 30.8335 21.8057 30.5425 21.8057C30.532 21.8057 30.5234 21.8896 30.5234 21.9921ZM34.3332 27.6087C33.6612 30.9843 33.0785 32.7159 31.8822 34.8914C30.1355 38.0679 27.7014 40.5063 24.2704 42.5167C23.729 42.8339 23.2506 43.1161 23.2074 43.1438C23.0045 43.2733 23.3411 43.3906 24.7556 43.6834C26.1836 43.979 26.3956 43.9991 28.0832 44C29.9889 44.0009 31.2939 43.8302 32.9081 43.3689C34.2552 42.9841 36.3835 41.8914 36.6579 41.4438C36.9319 40.9966 37.1785 38.9261 37.1785 37.0716C37.1785 34.3872 36.7212 32.004 35.7484 29.6185C35.3745 28.7014 34.5859 27.1978 34.4795 27.1988C34.4439 27.1991 34.378 27.3835 34.3332 27.6087ZM12.3882 31.4699C12.3882 31.7154 12.9315 33.5111 13.2234 34.2303C13.8498 35.7741 15.1319 37.745 16.3919 39.1016C17.4088 40.1964 19.4141 41.726 20.4529 42.1992C20.8833 42.3952 21.0954 42.3457 22.6349 41.6894C25.6095 40.4215 28.28 38.4261 30.1517 36.0728C31.0027 35.0028 32.0374 33.4501 31.9734 33.3389C31.9314 33.266 31.611 33.3394 30.8721 33.5912C29.7033 33.9894 28.3524 34.3421 27.1127 34.5724C25.9948 34.7801 22.7811 34.867 21.5885 34.7218C18.6902 34.3688 15.779 33.3499 13.1863 31.7809C12.7864 31.5389 12.4432 31.3409 12.4237 31.3409C12.4042 31.3409 12.3882 31.3989 12.3882 31.4699Z" fill="white"/>
<defs>
<linearGradient id="paint0_linear_1139_3534" x1="3.5" y1="-9.38773e-07" x2="52.5" y2="56" gradientUnits="userSpaceOnUse">
<stop stop-color="#121212"/>
<stop offset="1" stop-color="#565656"/>
</linearGradient>
</defs>
</svg>
