<svg width="176" height="44" viewBox="0 0 176 44" fill="none" xmlns="http://www.w3.org/2000/svg">
<g clip-path="url(#clip0_1164_3673)">
<mask id="mask0_1164_3673" style="mask-type:luminance" maskUnits="userSpaceOnUse" x="0" y="0" width="123" height="44">
<path d="M122.5 0H0V43.5H122.5V0Z" fill="white"/>
</mask>
<g mask="url(#mask0_1164_3673)">
<path d="M7.88913 14.4023L7.55982 14.2445L7.84797 14.0181C8.27791 13.6796 8.61638 13.2588 8.85193 12.774C9.11036 12.2389 9.243 11.6443 9.243 11.0062C9.243 10.279 9.06919 9.59976 8.72844 8.99144C8.38769 8.3854 7.86398 7.88913 7.17561 7.51864C6.48038 7.14587 5.62736 6.95605 4.63712 6.95605H0.305664V22.8708H5.46727C6.50325 22.8708 7.39744 22.6581 8.12926 22.2419C8.85879 21.8257 9.42138 21.2654 9.80101 20.5816C10.1806 19.8955 10.3727 19.1477 10.3727 18.3564C10.3727 17.4325 10.1349 16.6138 9.66837 15.9231C9.22699 15.2691 8.62781 14.7591 7.88913 14.4023ZM2.23812 8.8382H4.49761C5.34378 8.8382 6.02528 9.06004 6.52612 9.49455C7.03153 9.93593 7.28767 10.5122 7.28767 11.212C7.28767 11.9096 7.02467 12.5042 6.50554 12.9753C5.98869 13.4418 5.30719 13.6796 4.47474 13.6796H2.23812V8.8382ZM7.52323 20.2066C6.97665 20.7211 6.23111 20.9818 5.3049 20.9818H2.23812V15.5847H5.3049C6.22882 15.5847 6.97436 15.8362 7.52094 16.3348C8.07209 16.8379 8.35109 17.4851 8.35109 18.2581C8.35109 19.0356 8.07209 19.6897 7.52323 20.2066Z" fill="white"/>
<path d="M15.2166 15.6778H20.3691V13.8391H15.2166V8.81469H21.8945V6.95312H13.2842V22.8679H21.8945V21.0063H15.2166V15.6778Z" fill="white"/>
<path d="M50.6226 10.8119C49.9434 9.56091 48.9715 8.54552 47.7342 7.79998C46.497 7.05444 45.0654 6.6748 43.4805 6.6748C41.8797 6.6748 40.4412 7.05444 39.204 7.79998C37.9667 8.5478 36.9948 9.56091 36.3156 10.8119C35.6363 12.0651 35.291 13.4441 35.291 14.9101C35.291 16.392 35.6363 17.7779 36.3156 19.0311C36.9948 20.2843 37.9667 21.2975 39.204 22.043C40.4412 22.7885 41.8797 23.1682 43.4805 23.1682C45.0654 23.1682 46.497 22.7885 47.7342 22.043C48.9715 21.2952 49.9434 20.2821 50.6226 19.0311C51.3018 17.7779 51.6472 16.392 51.6472 14.9101C51.6472 13.4441 51.3018 12.0674 50.6226 10.8119ZM48.9257 18.0592C48.3997 19.0242 47.6542 19.8064 46.7051 20.385C45.756 20.9658 44.672 21.2586 43.4805 21.2586C42.2753 21.2586 41.1867 20.9636 40.2445 20.3827C39.3046 19.8041 38.5659 19.0197 38.0468 18.0569C37.5299 17.0941 37.2692 16.0352 37.2692 14.9078C37.2692 13.7803 37.5322 12.7215 38.0468 11.7587C38.5636 10.7936 39.3046 10.016 40.2445 9.44199C41.1867 8.87026 42.2753 8.57982 43.4805 8.57982C44.6697 8.57982 45.7537 8.87026 46.7028 9.44199C47.6519 10.0137 48.3974 10.7936 48.9234 11.7564C49.4471 12.7192 49.7147 13.778 49.7147 14.9055C49.7147 16.0329 49.4494 17.0964 48.9257 18.0592Z" fill="white"/>
<path d="M68.1337 23.1449V6.9534H66.2241V18.507L55.3337 6.69727H55.2217V22.8682H57.1313V11.5479L68.0216 23.1449H68.1337Z" fill="white"/>
<path d="M84.1357 14.8636C84.1357 13.3977 83.811 12.0461 83.1683 10.8478C82.528 9.65172 81.5972 8.69119 80.3988 7.99825C79.2005 7.30531 77.7711 6.95312 76.1543 6.95312H72.0332V22.8679H76.1543C77.7711 22.8679 79.1982 22.5088 80.3988 21.7999C81.5972 21.0909 82.528 20.1213 83.1683 18.9161C83.811 17.7086 84.1357 16.3456 84.1357 14.8636ZM81.4623 17.9281C80.982 18.8543 80.2822 19.6044 79.3789 20.1533C78.4755 20.7022 77.3984 20.9812 76.1771 20.9812H73.9634V8.83756H76.1771C77.3961 8.83756 78.4732 9.10514 79.3766 9.62885C80.2799 10.1548 80.982 10.8844 81.46 11.7968C81.938 12.707 82.1804 13.7385 82.1804 14.8636C82.1827 15.9728 81.9402 17.0042 81.4623 17.9281Z" fill="white"/>
<path d="M30.1753 26.8135H28.2451V42.7283H30.1753V26.8135Z" fill="white"/>
<path d="M42.4427 27.8606C41.2443 27.1676 39.8151 26.8154 38.1982 26.8154H34.0771V42.7302H38.1982C39.8151 42.7302 41.2421 42.3712 42.4427 41.6622C43.6411 40.9533 44.5718 39.9836 45.2122 38.7784C45.8548 37.5709 46.1796 36.2079 46.1796 34.7259C46.1796 33.26 45.8548 31.9084 45.2122 30.7078C44.5718 29.5117 43.6411 28.5535 42.4427 27.8606ZM43.5038 37.7904C43.0259 38.7166 42.3238 39.4668 41.4204 40.0156C40.5171 40.5645 39.4399 40.8435 38.2188 40.8435H36.0051V28.6976H38.2188C39.4377 28.6976 40.5149 28.9652 41.4182 29.4889C42.3216 30.0149 43.0236 30.7444 43.5038 31.6569C43.9818 32.5648 44.2243 33.5985 44.2243 34.7237C44.2243 35.8351 43.9818 36.8665 43.5038 37.7904Z" fill="white"/>
<path d="M51.2059 35.5404H56.3606V33.7017H51.2059V28.675H57.886V26.8135H49.2734V42.7283H57.886V40.8667H51.2059V35.5404Z" fill="white"/>
<path d="M61.459 26.5596V42.7282H63.3686V31.4101L74.2589 43.0072H74.3687V26.8134H72.4614V38.3693L61.5711 26.5596H61.459Z" fill="white"/>
<path d="M81.8873 42.7283H83.8197V28.7002H87.8173V26.8135H77.7959V28.7002H81.8873V42.7283Z" fill="white"/>
<path d="M93.1753 26.8135H91.2451V42.7283H93.1753V26.8135Z" fill="white"/>
<path d="M100.695 42.7283H102.626V28.7002H106.625V26.8135H96.6035V28.7002H100.695V42.7283Z" fill="white"/>
<path d="M120.114 26.9301L115.821 35.1768L111.629 26.8135H109.457L114.872 37.1436V42.7283H116.802V37.0955L122.261 26.9301H120.114Z" fill="white"/>
<path d="M35.3533 0.408203L28.9544 13.167L25.9379 7.14093H23.7676L28.9681 16.9496L37.5053 0.408203H35.3533Z" fill="white"/>
<path d="M28.2451 21.3525V23.5708H30.1753V17.5996L28.2451 21.3525Z" fill="white"/>
</g>
<path d="M136.738 28.1964H132.5V15.1055H136.872C138.155 15.1055 139.256 15.3675 140.177 15.8917C141.097 16.4116 141.803 17.1594 142.293 18.1353C142.787 19.1069 143.034 20.2724 143.034 21.6317C143.034 22.9954 142.785 24.1673 142.286 25.1474C141.792 26.1275 141.076 26.8817 140.138 27.4102C139.201 27.9343 138.067 28.1964 136.738 28.1964ZM134.475 26.4705H136.629C137.626 26.4705 138.455 26.283 139.116 25.908C139.776 25.5288 140.271 24.9812 140.599 24.2653C140.927 23.5451 141.091 22.6673 141.091 21.6317C141.091 20.6048 140.927 19.7333 140.599 19.0174C140.275 18.3015 139.791 17.7582 139.148 17.3874C138.504 17.0167 137.705 16.8313 136.751 16.8313H134.475V26.4705Z" fill="white"/>
<path d="M149.832 28.3945C148.912 28.3945 148.109 28.1836 147.423 27.7617C146.737 27.3398 146.204 26.7496 145.825 25.9911C145.445 25.2326 145.256 24.3462 145.256 23.332C145.256 22.3136 145.445 21.4229 145.825 20.6602C146.204 19.8974 146.737 19.305 147.423 18.8832C148.109 18.4613 148.912 18.2504 149.832 18.2504C150.753 18.2504 151.556 18.4613 152.242 18.8832C152.928 19.305 153.461 19.8974 153.84 20.6602C154.22 21.4229 154.409 22.3136 154.409 23.332C154.409 24.3462 154.22 25.2326 153.84 25.9911C153.461 26.7496 152.928 27.3398 152.242 27.7617C151.556 28.1836 150.753 28.3945 149.832 28.3945ZM149.839 26.7901C150.435 26.7901 150.93 26.6325 151.322 26.3171C151.714 26.0018 152.004 25.582 152.191 25.0579C152.383 24.5337 152.479 23.9563 152.479 23.3256C152.479 22.6992 152.383 22.1239 152.191 21.5998C152.004 21.0714 151.714 20.6474 151.322 20.3278C150.93 20.0082 150.435 19.8484 149.839 19.8484C149.238 19.8484 148.739 20.0082 148.343 20.3278C147.951 20.6474 147.659 21.0714 147.467 21.5998C147.28 22.1239 147.186 22.6992 147.186 23.3256C147.186 23.9563 147.28 24.5337 147.467 25.0579C147.659 25.582 147.951 26.0018 148.343 26.3171C148.739 26.6325 149.238 26.7901 149.839 26.7901Z" fill="white"/>
<path d="M161.038 28.3945C160.088 28.3945 159.27 28.1793 158.584 27.7489C157.902 27.3143 157.378 26.7156 157.011 25.9528C156.645 25.19 156.461 24.3164 156.461 23.332C156.461 22.3349 156.649 21.4549 157.024 20.6921C157.399 19.9251 157.927 19.3263 158.609 18.896C159.291 18.4656 160.094 18.2504 161.019 18.2504C161.765 18.2504 162.43 18.3888 163.013 18.6658C163.597 18.9386 164.068 19.3221 164.426 19.8164C164.788 20.3107 165.003 20.8881 165.072 21.5487H163.211C163.109 21.0884 162.875 20.6921 162.508 20.3597C162.146 20.0273 161.66 19.8612 161.051 19.8612C160.518 19.8612 160.052 20.0018 159.651 20.283C159.255 20.56 158.946 20.9563 158.724 21.4719C158.503 21.9833 158.392 22.5884 158.392 23.2873C158.392 24.0032 158.501 24.6211 158.718 25.141C158.935 25.6609 159.242 26.0636 159.638 26.3491C160.039 26.6346 160.51 26.7773 161.051 26.7773C161.413 26.7773 161.741 26.7113 162.035 26.5792C162.334 26.4428 162.583 26.2489 162.783 25.9975C162.988 25.7461 163.131 25.4435 163.211 25.0898H165.072C165.003 25.7248 164.797 26.2915 164.452 26.7901C164.106 27.2887 163.644 27.6808 163.064 27.9663C162.489 28.2518 161.814 28.3945 161.038 28.3945Z" fill="white"/>
<path d="M174.833 20.7752L173.1 21.082C173.028 20.8604 172.913 20.6495 172.755 20.4492C172.602 20.2489 172.393 20.0849 172.129 19.957C171.865 19.8292 171.534 19.7653 171.138 19.7653C170.597 19.7653 170.145 19.8867 169.783 20.1296C169.421 20.3683 169.24 20.6772 169.24 21.0565C169.24 21.3846 169.361 21.6488 169.604 21.8491C169.847 22.0494 170.239 22.2134 170.78 22.3413L172.34 22.6992C173.243 22.908 173.916 23.2298 174.36 23.6644C174.803 24.0991 175.024 24.6637 175.024 25.3583C175.024 25.9464 174.854 26.4705 174.513 26.9308C174.176 27.3867 173.706 27.7447 173.1 28.0046C172.5 28.2646 171.803 28.3945 171.01 28.3945C169.911 28.3945 169.014 28.1602 168.319 27.6914C167.625 27.2184 167.198 26.5472 167.041 25.6779L168.888 25.3967C169.003 25.8782 169.24 26.2425 169.598 26.4897C169.956 26.7326 170.422 26.854 170.997 26.854C171.624 26.854 172.125 26.7241 172.5 26.4641C172.875 26.1999 173.062 25.8782 173.062 25.4989C173.062 25.1921 172.947 24.9343 172.717 24.7255C172.491 24.5167 172.144 24.359 171.675 24.2525L170.013 23.8881C169.097 23.6793 168.419 23.3469 167.98 22.891C167.546 22.435 167.328 21.8576 167.328 21.1587C167.328 20.5792 167.49 20.0721 167.814 19.6374C168.138 19.2028 168.586 18.864 169.157 18.6211C169.728 18.3739 170.382 18.2504 171.119 18.2504C172.18 18.2504 173.015 18.4805 173.625 18.9407C174.234 19.3967 174.637 20.0082 174.833 20.7752Z" fill="white"/>
</g>
<defs>
<clipPath id="clip0_1164_3673">
<rect width="175.024" height="43.5" fill="white"/>
</clipPath>
</defs>
</svg>
