<svg width="123" height="65" viewBox="0 0 123 65" fill="none" xmlns="http://www.w3.org/2000/svg">
<g clip-path="url(#clip0_5990_83)">
<path d="M7.88913 14.4023L7.55982 14.2445L7.84797 14.0181C8.27791 13.6796 8.61638 13.2588 8.85193 12.774C9.11036 12.2389 9.243 11.6443 9.243 11.0062C9.243 10.279 9.06919 9.59975 8.72844 8.99143C8.38769 8.38539 7.86398 7.88913 7.17561 7.51864C6.48038 7.14587 5.62736 6.95605 4.63712 6.95605H0.305664V22.8708H5.46727C6.50325 22.8708 7.39744 22.6581 8.12926 22.2419C8.85879 21.8257 9.42138 21.2654 9.80101 20.5816C10.1806 19.8955 10.3727 19.1477 10.3727 18.3564C10.3727 17.4325 10.1349 16.6138 9.66837 15.9231C9.22699 15.2691 8.62781 14.7591 7.88913 14.4023ZM2.23812 8.8382H4.49761C5.34378 8.8382 6.02528 9.06004 6.52612 9.49455C7.03153 9.93593 7.28767 10.5122 7.28767 11.212C7.28767 11.9096 7.02467 12.5042 6.50554 12.9753C5.98869 13.4418 5.30719 13.6796 4.47474 13.6796H2.23812V8.8382ZM7.52323 20.2066C6.97665 20.7211 6.23111 20.9818 5.3049 20.9818H2.23812V15.5847H5.3049C6.22882 15.5847 6.97436 15.8362 7.52094 16.3348C8.07209 16.8379 8.35109 17.4851 8.35109 18.2581C8.35109 19.0356 8.07209 19.6897 7.52323 20.2066Z" fill="#4673D3"/>
<path d="M15.2166 15.6778H20.3691V13.8391H15.2166V8.81469H21.8945V6.95312H13.2842V22.8679H21.8945V21.0063H15.2166V15.6778Z" fill="#4673D3"/>
<path d="M50.6226 10.8119C49.9434 9.56091 48.9715 8.54552 47.7342 7.79998C46.497 7.05444 45.0654 6.6748 43.4805 6.6748C41.8797 6.6748 40.4412 7.05444 39.204 7.79998C37.9667 8.5478 36.9948 9.56091 36.3156 10.8119C35.6363 12.0651 35.291 13.4441 35.291 14.9101C35.291 16.392 35.6363 17.7779 36.3156 19.0311C36.9948 20.2843 37.9667 21.2975 39.204 22.043C40.4412 22.7885 41.8797 23.1682 43.4805 23.1682C45.0654 23.1682 46.497 22.7885 47.7342 22.043C48.9715 21.2952 49.9434 20.2821 50.6226 19.0311C51.3018 17.7779 51.6472 16.392 51.6472 14.9101C51.6472 13.4441 51.3018 12.0674 50.6226 10.8119ZM48.9257 18.0592C48.3997 19.0242 47.6542 19.8064 46.7051 20.385C45.756 20.9658 44.672 21.2586 43.4805 21.2586C42.2753 21.2586 41.1867 20.9636 40.2445 20.3827C39.3046 19.8041 38.5659 19.0197 38.0468 18.0569C37.5299 17.0941 37.2692 16.0352 37.2692 14.9078C37.2692 13.7803 37.5322 12.7215 38.0468 11.7587C38.5636 10.7936 39.3046 10.016 40.2445 9.44199C41.1867 8.87026 42.2753 8.57982 43.4805 8.57982C44.6697 8.57982 45.7537 8.87026 46.7028 9.44199C47.6519 10.0137 48.3974 10.7936 48.9234 11.7564C49.4471 12.7192 49.7147 13.778 49.7147 14.9055C49.7147 16.0329 49.4494 17.0964 48.9257 18.0592Z" fill="#4673D3"/>
<path d="M68.1337 23.1449V6.9534H66.2241V18.507L55.3337 6.69727H55.2217V22.8682H57.1313V11.5479L68.0216 23.1449H68.1337Z" fill="#4673D3"/>
<path d="M84.1357 14.8636C84.1357 13.3977 83.811 12.0461 83.1683 10.8478C82.528 9.65171 81.5972 8.69119 80.3988 7.99825C79.2005 7.30531 77.7711 6.95312 76.1543 6.95312H72.0332V22.8679H76.1543C77.7711 22.8679 79.1982 22.5088 80.3988 21.7999C81.5972 21.0909 82.528 20.1213 83.1683 18.9161C83.811 17.7086 84.1357 16.3456 84.1357 14.8636ZM81.4623 17.9281C80.982 18.8543 80.2822 19.6044 79.3789 20.1533C78.4755 20.7022 77.3984 20.9812 76.1771 20.9812H73.9634V8.83756H76.1771C77.3961 8.83756 78.4732 9.10513 79.3766 9.62884C80.2799 10.1548 80.982 10.8844 81.46 11.7968C81.938 12.707 82.1804 13.7385 82.1804 14.8636C82.1827 15.9728 81.9402 17.0042 81.4623 17.9281Z" fill="#4673D3"/>
<path d="M30.1753 26.8135H28.2451V42.7283H30.1753V26.8135Z" fill="#4673D3"/>
<path d="M42.4423 27.8606C41.2439 27.1676 39.8146 26.8154 38.1977 26.8154H34.0767V42.7302H38.1977C39.8146 42.7302 41.2417 42.3712 42.4423 41.6622C43.6407 40.9533 44.5714 39.9836 45.2118 38.7784C45.8544 37.5709 46.1792 36.2079 46.1792 34.7259C46.1792 33.26 45.8544 31.9084 45.2118 30.7078C44.5714 29.5117 43.6407 28.5535 42.4423 27.8606ZM43.5034 37.7904C43.0255 38.7166 42.3234 39.4668 41.42 40.0156C40.5167 40.5645 39.4395 40.8435 38.2183 40.8435H36.0046V28.6976H38.2183C39.4373 28.6976 40.5144 28.9652 41.4177 29.4889C42.3211 30.0149 43.0232 30.7444 43.5034 31.6569C43.9814 32.5648 44.2238 33.5985 44.2238 34.7237C44.2238 35.8351 43.9814 36.8665 43.5034 37.7904Z" fill="#4673D3"/>
<path d="M51.2059 35.5404H56.3606V33.7017H51.2059V28.675H57.886V26.8135H49.2734V42.7283H57.886V40.8667H51.2059V35.5404Z" fill="#4673D3"/>
<path d="M61.4585 26.5596V42.7282H63.3681V31.4101L74.2584 43.0072H74.3682V26.8134H72.4609V38.3693L61.5706 26.5596H61.4585Z" fill="#4673D3"/>
<path d="M81.8875 42.7283H83.8199V28.7002H87.8175V26.8135H77.7961V28.7002H81.8875V42.7283Z" fill="#4673D3"/>
<path d="M93.1758 26.8135H91.2456V42.7283H93.1758V26.8135Z" fill="#4673D3"/>
<path d="M100.695 42.7283H102.626V28.7002H106.625V26.8135H96.604V28.7002H100.695V42.7283Z" fill="#4673D3"/>
<path d="M120.114 26.9301L115.821 35.1768L111.629 26.8135H109.457L114.872 37.1436V42.7283H116.802V37.0955L122.261 26.9301H120.114Z" fill="#4673D3"/>
<path d="M35.353 0.408203L28.9541 13.167L25.9376 7.14093H23.7673L28.9678 16.9496L37.505 0.408203H35.353Z" fill="#4673D3"/>
<path d="M28.2451 21.3525V23.5708H30.1753V17.5996L28.2451 21.3525Z" fill="#4673D3"/>
</g>
<path d="M92.9148 61.5H89.6186V51.3182H93.0192C94.0168 51.3182 94.8736 51.522 95.5895 51.9297C96.3054 52.334 96.8539 52.9157 97.2351 53.6747C97.6196 54.4304 97.8118 55.3369 97.8118 56.3942C97.8118 57.4548 97.6179 58.3662 97.2301 59.1286C96.8456 59.8909 96.2888 60.4775 95.5597 60.8885C94.8305 61.2962 93.9489 61.5 92.9148 61.5ZM91.1548 60.1577H92.8303C93.6058 60.1577 94.2505 60.0118 94.7642 59.7202C95.2779 59.4252 95.6624 58.9993 95.9176 58.4425C96.1728 57.8823 96.3004 57.1996 96.3004 56.3942C96.3004 55.5954 96.1728 54.9176 95.9176 54.3608C95.6657 53.804 95.2895 53.3814 94.7891 53.093C94.2886 52.8047 93.6671 52.6605 92.9247 52.6605H91.1548V60.1577ZM102.819 61.6541C102.104 61.6541 101.479 61.4901 100.945 61.1619C100.412 60.8338 99.9972 60.3748 99.7022 59.7848C99.4073 59.1948 99.2598 58.5054 99.2598 57.7166C99.2598 56.9245 99.4073 56.2318 99.7022 55.6385C99.9972 55.0452 100.412 54.5845 100.945 54.2564C101.479 53.9283 102.104 53.7642 102.819 53.7642C103.535 53.7642 104.16 53.9283 104.694 54.2564C105.227 54.5845 105.642 55.0452 105.937 55.6385C106.232 56.2318 106.379 56.9245 106.379 57.7166C106.379 58.5054 106.232 59.1948 105.937 59.7848C105.642 60.3748 105.227 60.8338 104.694 61.1619C104.16 61.4901 103.535 61.6541 102.819 61.6541ZM102.824 60.4062C103.288 60.4062 103.673 60.2836 103.978 60.0384C104.283 59.7931 104.508 59.4666 104.654 59.0589C104.803 58.6513 104.878 58.2022 104.878 57.7116C104.878 57.2244 104.803 56.777 104.654 56.3693C104.508 55.9583 104.283 55.6286 103.978 55.38C103.673 55.1314 103.288 55.0071 102.824 55.0071C102.357 55.0071 101.969 55.1314 101.661 55.38C101.356 55.6286 101.129 55.9583 100.98 56.3693C100.834 56.777 100.761 57.2244 100.761 57.7116C100.761 58.2022 100.834 58.6513 100.98 59.0589C101.129 59.4666 101.356 59.7931 101.661 60.0384C101.969 60.2836 102.357 60.4062 102.824 60.4062ZM111.255 61.6541C110.516 61.6541 109.879 61.4867 109.346 61.152C108.816 60.8139 108.408 60.3482 108.123 59.755C107.838 59.1617 107.695 58.4822 107.695 57.7166C107.695 56.9411 107.841 56.2566 108.133 55.6634C108.424 55.0668 108.835 54.6011 109.366 54.2663C109.896 53.9316 110.521 53.7642 111.24 53.7642C111.82 53.7642 112.337 53.8719 112.791 54.0874C113.245 54.2995 113.612 54.5978 113.89 54.9822C114.172 55.3667 114.339 55.8158 114.392 56.3295H112.945C112.866 55.9716 112.683 55.6634 112.398 55.4048C112.117 55.1463 111.739 55.017 111.265 55.017C110.851 55.017 110.488 55.1264 110.176 55.3452C109.868 55.5606 109.628 55.8688 109.455 56.2699C109.283 56.6676 109.197 57.1383 109.197 57.6818C109.197 58.2386 109.281 58.7192 109.45 59.1236C109.619 59.5279 109.858 59.8411 110.166 60.0632C110.478 60.2853 110.844 60.3963 111.265 60.3963C111.547 60.3963 111.802 60.3449 112.031 60.2422C112.263 60.1361 112.456 59.9853 112.612 59.7898C112.771 59.5942 112.882 59.3589 112.945 59.0838H114.392C114.339 59.5777 114.178 60.0185 113.91 60.4062C113.641 60.794 113.282 61.099 112.831 61.321C112.384 61.5431 111.858 61.6541 111.255 61.6541ZM121.704 55.728L120.357 55.9666C120.3 55.7943 120.211 55.6302 120.088 55.4744C119.969 55.3187 119.807 55.1911 119.601 55.0916C119.396 54.9922 119.139 54.9425 118.83 54.9425C118.41 54.9425 118.058 55.0369 117.776 55.2259C117.495 55.4115 117.354 55.6518 117.354 55.9467C117.354 56.2019 117.448 56.4074 117.637 56.5632C117.826 56.719 118.131 56.8466 118.552 56.946L119.765 57.2244C120.468 57.3868 120.991 57.6371 121.336 57.9751C121.681 58.3132 121.853 58.7524 121.853 59.2926C121.853 59.75 121.721 60.1577 121.455 60.5156C121.194 60.8703 120.827 61.1487 120.357 61.3509C119.889 61.553 119.347 61.6541 118.731 61.6541C117.876 61.6541 117.178 61.4718 116.638 61.1072C116.098 60.7393 115.766 60.2173 115.644 59.5412L117.08 59.3224C117.17 59.697 117.354 59.9804 117.632 60.1726C117.911 60.3615 118.274 60.456 118.721 60.456C119.208 60.456 119.598 60.3549 119.889 60.1527C120.181 59.9472 120.327 59.697 120.327 59.402C120.327 59.1634 120.237 58.9628 120.058 58.8004C119.883 58.638 119.613 58.5154 119.248 58.4325L117.955 58.1491C117.243 57.9867 116.716 57.7282 116.374 57.3736C116.036 57.0189 115.867 56.5698 115.867 56.0263C115.867 55.5755 115.993 55.1811 116.245 54.843C116.497 54.505 116.845 54.2415 117.289 54.0526C117.733 53.8603 118.242 53.7642 118.816 53.7642C119.641 53.7642 120.29 53.9432 120.764 54.3011C121.238 54.6558 121.552 55.1314 121.704 55.728Z" fill="#4673D3"/>
<defs>
<clipPath id="clip0_5990_83">
<rect width="122.5" height="43.5" fill="white"/>
</clipPath>
</defs>
</svg>
