<svg width="24" height="24" viewBox="0 0 24 24" fill="none" xmlns="http://www.w3.org/2000/svg">
<path d="M18 0H6C4.34315 0 3 1.34314 3 3V21C3 22.6569 4.34315 24 6 24H18C19.6569 24 21 22.6569 21 21V3C21 1.34315 19.6569 0 18 0ZM7.5 6H16.5C16.9142 6 17.25 6.33579 17.25 6.75C17.25 7.16421 16.9142 7.5 16.5 7.5H7.5C7.08579 7.5 6.75 7.16421 6.75 6.75C6.75 6.33579 7.08579 6 7.5 6ZM6.75 9.75C6.75 9.33579 7.08579 9 7.5 9H16.5C16.9142 9 17.25 9.33579 17.25 9.75C17.25 10.1642 16.9142 10.5 16.5 10.5H7.5C7.08579 10.5 6.75 10.1642 6.75 9.75ZM7.5 12H16.5C16.9142 12 17.25 12.3358 17.25 12.75C17.25 13.1642 16.9142 13.5 16.5 13.5H7.5C7.08579 13.5 6.75 13.1642 6.75 12.75C6.75 12.3358 7.08579 12 7.5 12ZM7.5 15H12C12.4142 15 12.75 15.3358 12.75 15.75C12.75 16.1642 12.4142 16.5 12 16.5H7.5C7.08579 16.5 6.75 16.1642 6.75 15.75C6.75 15.3358 7.08579 15 7.5 15Z" fill="white"/>
</svg>
