<svg width="25" height="24" viewBox="0 0 25 24" fill="none" xmlns="http://www.w3.org/2000/svg">
<path d="M18.666 0H6.66602C5.00916 0 3.66602 1.34314 3.66602 3V21C3.66602 22.6569 5.00916 24 6.66602 24H18.666C20.3229 24 21.666 22.6569 21.666 21V3C21.666 1.34315 20.3229 0 18.666 0ZM8.16602 6H17.166C17.5802 6 17.916 6.33579 17.916 6.75C17.916 7.16421 17.5802 7.5 17.166 7.5H8.16602C7.7518 7.5 7.41602 7.16421 7.41602 6.75C7.41602 6.33579 7.7518 6 8.16602 6ZM7.41602 9.75C7.41602 9.33579 7.7518 9 8.16602 9H17.166C17.5802 9 17.916 9.33579 17.916 9.75C17.916 10.1642 17.5802 10.5 17.166 10.5H8.16602C7.7518 10.5 7.41602 10.1642 7.41602 9.75ZM8.16602 12H17.166C17.5802 12 17.916 12.3358 17.916 12.75C17.916 13.1642 17.5802 13.5 17.166 13.5H8.16602C7.7518 13.5 7.41602 13.1642 7.41602 12.75C7.41602 12.3358 7.7518 12 8.16602 12ZM8.16602 15H12.666C13.0802 15 13.416 15.3358 13.416 15.75C13.416 16.1642 13.0802 16.5 12.666 16.5H8.16602C7.7518 16.5 7.41602 16.1642 7.41602 15.75C7.41602 15.3358 7.7518 15 8.16602 15Z" fill="#121212"/>
</svg>
