<svg width="24" height="24" viewBox="0 0 24 24" fill="none" xmlns="http://www.w3.org/2000/svg">
<path d="M0 12C0 5.37258 5.37258 0 12 0C18.6274 0 24 5.37258 24 12C24 18.6274 18.6274 24 12 24C5.37258 24 0 18.6274 0 12ZM11.25 1.61483C10.2459 1.92192 9.24693 2.84583 8.41912 4.39798C8.15995 4.88392 7.92449 5.42044 7.71749 5.99999H11.25V1.61483ZM6.13431 5.99999C6.40194 5.16208 6.72488 4.38718 7.09559 3.6921C7.36367 3.18945 7.66294 2.71862 7.99089 2.29253C6.12178 3.0653 4.52443 4.36219 3.38203 5.99999H6.13431ZM5.26268 11.25C5.30729 9.93475 5.46854 8.67254 5.73001 7.49999H2.51044C1.96399 8.6503 1.62053 9.91573 1.52637 11.25H5.26268ZM7.27029 7.49999C6.99009 8.64746 6.81227 9.91167 6.76359 11.25H11.25V7.49999H7.27029ZM12.75 7.49999V11.25H17.2364C17.1877 9.91167 17.0099 8.64746 16.7297 7.49999H12.75ZM6.76359 12.75C6.81227 14.0883 6.99009 15.3525 7.27029 16.5H11.25V12.75H6.76359ZM12.75 12.75V16.5H16.7297C17.0099 15.3525 17.1877 14.0883 17.2364 12.75H12.75ZM7.71749 18C7.92449 18.5795 8.15995 19.1161 8.41912 19.602C9.24693 21.1541 10.2459 22.0781 11.25 22.3851V18H7.71749ZM7.9909 21.7075C7.66294 21.2814 7.36367 20.8105 7.09559 20.3079C6.72488 19.6128 6.40194 18.8379 6.13431 18H3.38203C4.52443 19.6378 6.12179 20.9347 7.9909 21.7075ZM5.73001 16.5C5.46854 15.3274 5.30729 14.0652 5.26268 12.75H1.52637C1.62053 14.0842 1.96399 15.3497 2.51044 16.5H5.73001ZM16.0091 21.7075C17.8782 20.9347 19.4756 19.6378 20.618 18H17.8657C17.5981 18.8379 17.2751 19.6128 16.9044 20.3079C16.6363 20.8105 16.337 21.2814 16.0091 21.7075ZM12.75 18V22.3851C13.7541 22.0781 14.7531 21.1541 15.5809 19.602C15.84 19.1161 16.0755 18.5795 16.2825 18H12.75ZM18.27 16.5H21.4895C22.036 15.3497 22.3795 14.0842 22.4736 12.75H18.7373C18.6927 14.0652 18.5314 15.3274 18.27 16.5ZM22.4736 11.25C22.3795 9.91573 22.036 8.6503 21.4895 7.49999H18.27C18.5314 8.67254 18.6927 9.93475 18.7373 11.25H22.4736ZM16.9044 3.6921C17.2751 4.38718 17.5981 5.16208 17.8657 5.99999H20.618C19.4756 4.36219 17.8782 3.0653 16.0091 2.29252C16.337 2.71861 16.6363 3.18945 16.9044 3.6921ZM16.2825 5.99999C16.0755 5.42044 15.84 4.88392 15.5809 4.39798C14.7531 2.84583 13.7541 1.92192 12.75 1.61483V5.99999H16.2825Z" fill="white"/>
</svg>
