<svg width="57" height="56" viewBox="0 0 57 56" fill="none" xmlns="http://www.w3.org/2000/svg">
<rect x="0.333984" width="56" height="56" rx="8" fill="url(#paint0_linear_1139_3540)"/>
<path fill-rule="evenodd" clip-rule="evenodd" d="M28.334 41.866C28.349 41.8639 28.4124 41.8549 28.5355 41.8167C28.685 41.7704 28.8819 41.694 29.1226 41.5807C29.6033 41.3544 30.2152 41.0015 30.9073 40.5134C32.2903 39.5381 33.9494 38.0545 35.4827 36.0486C38.5367 32.0533 41.0962 25.9858 39.9885 17.6728C39.9412 17.3183 39.6897 17.0082 39.3316 16.8913C38.0297 16.4665 35.8301 15.7704 33.6581 15.1817C31.4374 14.5797 29.3957 14.1333 28.334 14.1333V41.866ZM22.4773 13.1193C24.6488 12.5307 26.955 12 28.334 12C29.713 12 32.0192 12.5307 34.1907 13.1193C36.4109 13.7211 38.6477 14.4292 39.9634 14.8586C41.0615 15.2169 41.892 16.1872 42.0515 17.3842C43.2448 26.3388 40.4779 32.9737 37.122 37.364C35.4503 39.5508 33.6335 41.1807 32.0878 42.2707C31.3155 42.8154 30.5997 43.2331 29.9919 43.5192C29.4303 43.7836 28.8294 44 28.334 44C27.8386 44 27.2377 43.7836 26.6761 43.5192C26.0682 43.2331 25.3525 42.8154 24.5802 42.2707C23.0345 41.1807 21.2176 39.5508 19.546 37.364C16.1901 32.9737 13.4232 26.3388 14.6164 17.3842C14.776 16.1872 15.6065 15.2169 16.7045 14.8586C18.0203 14.4292 20.2571 13.7211 22.4773 13.1193Z" fill="white"/>
<defs>
<linearGradient id="paint0_linear_1139_3540" x1="3.83399" y1="-9.38773e-07" x2="52.834" y2="56" gradientUnits="userSpaceOnUse">
<stop stop-color="#121212"/>
<stop offset="1" stop-color="#565656"/>
</linearGradient>
</defs>
</svg>
