<svg width="57" height="56" viewBox="0 0 57 56" fill="none" xmlns="http://www.w3.org/2000/svg">
<rect x="0.666016" width="56" height="56" rx="8" fill="url(#paint0_linear_1139_3546)"/>
<path fill-rule="evenodd" clip-rule="evenodd" d="M24.666 14V20H14.666L14.666 14H24.666ZM14.666 12C13.5614 12 12.666 12.8954 12.666 14V20C12.666 21.1046 13.5614 22 14.666 22H24.666C25.7706 22 26.666 21.1046 26.666 20V14C26.666 12.8954 25.7706 12 24.666 12H14.666ZM42.666 36V42H32.666V36H42.666ZM32.666 34C31.5614 34 30.666 34.8954 30.666 36V42C30.666 43.1046 31.5614 44 32.666 44H42.666C43.7706 44 44.666 43.1046 44.666 42V36C44.666 34.8954 43.7706 34 42.666 34H32.666ZM12.666 28C12.666 26.8954 13.5614 26 14.666 26H24.666C25.7706 26 26.666 26.8954 26.666 28V42C26.666 43.1046 25.7706 44 24.666 44H14.666C13.5614 44 12.666 43.1046 12.666 42V28ZM32.666 12C31.5614 12 30.666 12.8954 30.666 14V28C30.666 29.1046 31.5614 30 32.666 30H42.666C43.7706 30 44.666 29.1046 44.666 28V14C44.666 12.8954 43.7706 12 42.666 12H32.666Z" fill="white"/>
<defs>
<linearGradient id="paint0_linear_1139_3546" x1="4.16602" y1="-9.38773e-07" x2="53.166" y2="56" gradientUnits="userSpaceOnUse">
<stop stop-color="#121212"/>
<stop offset="1" stop-color="#565656"/>
</linearGradient>
</defs>
</svg>
