<svg width="64" height="65" viewBox="0 0 64 65" fill="none" xmlns="http://www.w3.org/2000/svg">
<g clip-path="url(#clip0_433_1935)">
<path d="M62.3125 1.52699C59.8425 0.0282382 57.4475 1.12374 57.1113 1.38949C51.8925 3.77199 47.6087 4.88199 43.6362 4.88199C40.0212 4.88199 37.1688 3.96686 34.1488 2.99574C30.9375 1.85349 27.5125 0.786663 23.15 0.786176C19.875 0.786176 15.1625 1.07811 4 5.60299V2.74924C4 1.64474 3.1045 0.861738 2 0.861738C0.8955 0.861738 0 1.64449 0 2.74924V62.748C0 63.848 0.8955 64.748 2 64.748C3.1045 64.748 4 63.848 4 62.748V49.6355C5.80875 48.8304 13.7188 44.7692 22.6 44.7692C27.2 44.7692 30.9925 45.7334 35.0062 46.7555C38.8487 47.733 42.8175 48.743 47.42 48.743C51.8525 48.743 56.43 47.7989 61.3075 45.8567C62.8425 45.2591 63.855 43.7817 63.855 42.1342L64 4.79174C64 3.49924 63.425 2.19799 62.3125 1.52699ZM59.9625 42.123C55.4488 43.8817 51.3462 44.7367 47.425 44.7367C43.3237 44.7367 39.7675 43.832 36.0013 42.8742C31.925 41.8355 27.7125 40.773 22.6 40.773C16.8638 40.773 10.8988 42.1867 4.3625 45.0955L4 45.2605V9.91924L7.50125 8.50049C13.6687 6.00299 18.7875 4.78799 23.1513 4.78799C26.9938 4.78799 29.8763 5.71374 32.9263 6.69299C36.1063 7.71449 39.395 8.77049 43.6375 8.77049C52.3162 8.77049 60 4.74924 60 4.74924L59.9625 42.123Z" fill="#4673D3"/>
</g>
<defs>
<clipPath id="clip0_433_1935">
<rect width="64" height="64" fill="white" transform="translate(0 0.747986)"/>
</clipPath>
</defs>
</svg>
