<svg width="64" height="65" viewBox="0 0 64 65" fill="none" xmlns="http://www.w3.org/2000/svg">
<g clip-path="url(#clip0_433_1919)">
<path d="M8 8.74799C8 4.32924 11.5813 0.747986 16 0.747986H35.5125C37.1 0.747986 38.6375 1.38011 39.7625 2.50549L54.2375 16.9855C55.3625 18.1105 56 19.648 56 21.2355V56.748C56 61.1605 52.4125 64.748 48 64.748H16C11.5813 64.748 8 61.1605 8 56.748V8.74799ZM52 24.748H38C34.6875 24.748 32 22.0605 32 18.748V4.74799H16C13.7913 4.74799 12 6.53924 12 8.74799V56.748C12 58.9605 13.7913 60.748 16 60.748H48C50.2125 60.748 52 58.9605 52 56.748V24.748ZM51.4125 19.823L36.925 5.33424C36.675 5.07549 36.35 4.89549 36 4.80799V18.748C36 19.848 36.9 20.748 38 20.748H51.9375C51.85 20.398 51.675 20.073 51.4125 19.823Z" fill="#4673D3"/>
</g>
<defs>
<clipPath id="clip0_433_1919">
<rect width="64" height="64" fill="white" transform="translate(0 0.747986)"/>
</clipPath>
</defs>
</svg>
