<svg width="64" height="65" viewBox="0 0 64 65" fill="none" xmlns="http://www.w3.org/2000/svg">
<g clip-path="url(#clip0_433_1728)">
<path d="M32 32.748C40.8375 32.748 48 25.5842 48 16.748C48 7.91174 40.8375 0.747986 32 0.747986C23.1625 0.747986 16 7.91174 16 16.748C16 25.5842 23.1625 32.748 32 32.748ZM32 4.74799C38.6175 4.74799 44 10.1305 44 16.748C44 23.3642 38.6175 28.748 32 28.748C25.3825 28.748 20 23.3605 20 16.748C20 10.1305 25.3875 4.74799 32 4.74799ZM38.3375 38.748H25.6625C13.7012 38.748 4 48.448 4 60.4105C4 62.803 5.94 64.7442 8.3325 64.7442H55.67C58.0625 64.748 60 62.8105 60 60.4105C60 48.448 50.3 38.748 38.3375 38.748ZM55.6625 60.748H8.3325C8.15 60.748 8 60.598 8 60.4105C8 50.673 15.925 42.748 25.6625 42.748H38.325C48.075 42.748 56 50.673 56 60.4105C56 60.598 55.85 60.748 55.6625 60.748Z" fill="#4673D3"/>
</g>
<defs>
<clipPath id="clip0_433_1728">
<rect width="64" height="64" fill="white" transform="translate(0 0.747986)"/>
</clipPath>
</defs>
</svg>
