<svg width="64" height="65" viewBox="0 0 64 65" fill="none" xmlns="http://www.w3.org/2000/svg">
<path d="M41.52 9.10679L25.52 57.1108C25.24 57.9408 24.33 58.3108 23.49 58.1208C22.66 57.8408 22.2 56.9308 22.48 56.0908L38.48 8.09479C38.76 7.25619 39.67 6.80309 40.51 7.08254C41.34 7.36199 41.71 8.26779 41.52 9.10679ZM17.06 20.9908L4.008 32.6008L17.06 44.2008C17.72 44.7908 17.78 45.8008 17.11 46.4608C16.61 47.1208 15.51 47.1808 14.94 46.5908L0.5371 33.7108C0.1955 33.4908 3.00035e-05 33.0608 3.45341e-09 32.6008C-2.99965e-05 32.1408 0.1954 31.7108 0.537 31.4008L14.94 18.6008C15.51 18.0208 16.61 18.0808 17.11 18.7408C17.78 19.3108 17.72 20.4108 17.06 20.9908ZM49.06 18.6008L63.46 31.4008C63.8 31.7108 64 32.1408 64 32.5108C64 33.0608 63.8 33.4908 63.46 33.7108L49.06 46.5908C48.4 47.1808 47.39 47.1208 46.8 46.4608C46.22 45.8008 46.28 44.7908 46.94 44.2008L59.99 32.5108L46.94 20.9908C46.28 20.4108 46.22 19.3108 46.8 18.7408C47.39 18.0808 48.4 18.0208 49.06 18.6008Z" fill="#4673D3"/>
</svg>
