<svg width="64" height="65" viewBox="0 0 64 65" fill="none" xmlns="http://www.w3.org/2000/svg">
<g clip-path="url(#clip0_433_1736)">
<path d="M16 15.748C16 14.0855 17.3438 12.748 19 12.748H25C26.6625 12.748 28 14.0855 28 15.748V21.748C28 23.4105 26.6625 24.748 25 24.748H19C17.3438 24.748 16 23.4105 16 21.748V15.748ZM20 16.748V20.748H24V16.748H20ZM45 12.748C46.6625 12.748 48 14.0855 48 15.748V21.748C48 23.4105 46.6625 24.748 45 24.748H39C37.3375 24.748 36 23.4105 36 21.748V15.748C36 14.0855 37.3375 12.748 39 12.748H45ZM44 20.748V16.748H40V20.748H44ZM16 31.748C16 30.0855 17.3438 28.748 19 28.748H25C26.6625 28.748 28 30.0855 28 31.748V37.748C28 39.4105 26.6625 40.748 25 40.748H19C17.3438 40.748 16 39.4105 16 37.748V31.748ZM20 32.748V36.748H24V32.748H20ZM45 28.748C46.6625 28.748 48 30.0855 48 31.748V37.748C48 39.4105 46.6625 40.748 45 40.748H39C37.3375 40.748 36 39.4105 36 37.748V31.748C36 30.0855 37.3375 28.748 39 28.748H45ZM44 36.748V32.748H40V36.748H44ZM16 64.748C11.5813 64.748 8 61.1605 8 56.748V8.74799C8 4.32924 11.5813 0.747986 16 0.747986H48C52.4125 0.747986 56 4.32924 56 8.74799V56.748C56 61.1605 52.4125 64.748 48 64.748H16ZM12 8.74799V56.748C12 58.9605 13.7913 60.748 16 60.748H24V52.748C24 48.3355 27.5875 44.748 32 44.748C36.4125 44.748 40 48.3355 40 52.748V60.748H48C50.2125 60.748 52 58.9605 52 56.748V8.74799C52 6.53924 50.2125 4.74799 48 4.74799H16C13.7913 4.74799 12 6.53924 12 8.74799ZM36 52.748C36 50.5355 34.2125 48.748 32 48.748C29.7875 48.748 28 50.5355 28 52.748V60.748H36V52.748Z" fill="#4673D3"/>
</g>
<defs>
<clipPath id="clip0_433_1736">
<rect width="64" height="64" fill="white" transform="translate(0 0.747986)"/>
</clipPath>
</defs>
</svg>
