<svg width="64" height="65" viewBox="0 0 64 65" fill="none" xmlns="http://www.w3.org/2000/svg">
<g clip-path="url(#clip0_433_1929)">
<path d="M32 0.747986C14.325 0.747986 0 15.073 0 32.748C0 50.423 14.325 64.748 32 64.748C49.675 64.748 64 50.423 64 32.748C64 15.073 49.675 0.747986 32 0.747986ZM32 60.748C16.5625 60.748 4 48.1855 4 32.748C4 17.3105 16.5625 4.74799 32 4.74799C47.4375 4.74799 60 17.3105 60 32.748C60 48.1855 47.4375 60.748 32 60.748ZM30 43.748C28.3438 43.748 27 45.0917 27 46.748C27 48.4042 28.3438 49.748 30 49.748C31.6562 49.748 33 48.4042 33 46.748C33 45.0917 31.6625 43.748 30 43.748ZM35.7 16.748H28.3C23.725 16.748 20 20.473 20 25.048V26.248C20 27.3535 20.8945 28.248 22 28.248C23.1055 28.248 24 27.348 24 26.248V25.048C24 22.673 25.925 20.748 28.3 20.748H35.7062C38.075 20.748 40 22.673 40 25.048C40 26.608 39.1524 28.048 37.8675 28.763L30.3125 32.5355C28.8875 33.3355 28 34.8355 28 36.473V38.748C28 39.848 28.9 40.748 30 40.748C31.1 40.748 32 39.848 32 38.748V36.473C32 36.2914 32.0977 36.1234 32.1797 36.0765L39.731 32.299C42.3625 30.8355 44 28.0605 44 25.048C44 20.473 40.275 16.748 35.7 16.748Z" fill="#4673D3"/>
</g>
<defs>
<clipPath id="clip0_433_1929">
<rect width="64" height="64" fill="white" transform="translate(0 0.747986)"/>
</clipPath>
</defs>
</svg>
