<svg xmlns="http://www.w3.org/2000/svg" xmlns:xlink="http://www.w3.org/1999/xlink" xmlns:lucid="lucid" width="1305.64" height="245.69"><g transform="translate(1630.638888888889 -98.12499999999999)" lucid:page-tab-id="0_0"><path d="M-1696 0H64v1360h-1760z" fill-opacity="0"/><path d="M-1334.54 119.12l117.9 100.7-117.9 100.72h-275.1l117.9-100.7-117.9-100.72z" stroke="#000" stroke-opacity="0" stroke-width="2" fill="#3727d6"/><path d="M-1530.56 140.46h271.58v148.67h-271.58z" stroke="#000" stroke-opacity="0" stroke-width="2" fill-opacity="0"/><use xlink:href="#a" transform="matrix(1,0,0,1,-1525.5545880665281,145.46194151606426) translate(81.28703703703704 23.277777777777782)"/><use xlink:href="#b" transform="matrix(1,0,0,1,-1525.5545880665281,145.46194151606426) translate(81.28703703703704 57.94444444444444)"/><use xlink:href="#c" transform="matrix(1,0,0,1,-1525.5545880665281,145.46194151606426) translate(31.6543209876543 92.61111111111111)"/><use xlink:href="#d" transform="matrix(1,0,0,1,-1525.5545880665281,145.46194151606426) translate(47.70370370370368 92.61111111111111)"/><use xlink:href="#e" transform="matrix(1,0,0,1,-1525.5545880665281,145.46194151606426) translate(131 127.27777777777779)"/><path d="M-1044.54 119.56l117.9 100.7-117.9 100.72h-275.1l117.9-100.7-117.9-100.72z" stroke="#000" stroke-opacity="0" stroke-width="2" fill="#3727d6"/><path d="M-1262 140.2h286.67v148.65H-1262z" stroke="#000" stroke-opacity="0" stroke-width="2" fill-opacity="0"/><use xlink:href="#f" transform="matrix(1,0,0,1,-1257,145.18699158671433) translate(71.25308641975309 23.277777777777782)"/><use xlink:href="#g" transform="matrix(1,0,0,1,-1257,145.18699158671433) translate(162.57407407407408 23.277777777777782)"/><use xlink:href="#h" transform="matrix(1,0,0,1,-1257,145.18699158671433) translate(35.26234567901234 57.94444444444444)"/><use xlink:href="#i" transform="matrix(1,0,0,1,-1257,145.18699158671433) translate(59.33641975308642 57.94444444444444)"/><use xlink:href="#j" transform="matrix(1,0,0,1,-1257,145.18699158671433) translate(84.85493827160494 92.61111111111111)"/><use xlink:href="#k" transform="matrix(1,0,0,1,-1257,145.18699158671433) translate(113.66358024691357 92.61111111111111)"/><use xlink:href="#l" transform="matrix(1,0,0,1,-1257,145.18699158671433) translate(85.57716049382717 127.27777777777779)"/><g><path d="M-754.54 119.77l117.9 100.7-117.9 100.72h-275.1l117.9-100.72-117.9-100.7z" stroke="#000" stroke-opacity="0" stroke-width="2" fill="#3727d6"/></g><path d="M-960 138.6h265.83V321.9H-960z" stroke="#000" stroke-opacity="0" stroke-width="2" fill-opacity="0"/><g><use xlink:href="#m" transform="matrix(1,0,0,1,-955,143.58709839357428) translate(100.03395061728395 23.444444444444454)"/><use xlink:href="#n" transform="matrix(1,0,0,1,-955,143.58709839357428) translate(76.72222222222223 58.111111111111114)"/><use xlink:href="#o" transform="matrix(1,0,0,1,-955,143.58709839357428) translate(84.06481481481481 92.77777777777779)"/><use xlink:href="#p" transform="matrix(1,0,0,1,-955,143.58709839357428) translate(119.21296296296296 92.77777777777779)"/><use xlink:href="#q" transform="matrix(1,0,0,1,-955,143.58709839357428) translate(3.135802469135797 127.44444444444446)"/><use xlink:href="#r" transform="matrix(1,0,0,1,-955,143.58709839357428) translate(128 162.11111111111111)"/></g><g><path d="M-463.9 121.4L-346 222.1l-117.9 100.7H-739l117.9-100.7L-739 121.4z" stroke="#000" stroke-opacity="0" stroke-width="2" fill="#3727d6"/></g><path d="M-686.36 125.4h286.45v183.14h-286.46z" stroke="#000" stroke-opacity="0" stroke-width="2" fill-opacity="0"/><g><use xlink:href="#s" transform="matrix(1,0,0,1,-681.3611111111111,130.4081325301204) translate(32.734567901234584 40.777777777777786)"/><use xlink:href="#t" transform="matrix(1,0,0,1,-681.3611111111111,130.4081325301204) translate(160.96913580246914 40.777777777777786)"/><use xlink:href="#u" transform="matrix(1,0,0,1,-681.3611111111111,130.4081325301204) translate(50.34876543209877 75.44444444444444)"/><use xlink:href="#v" transform="matrix(1,0,0,1,-681.3611111111111,130.4081325301204) translate(66.39814814814815 75.44444444444444)"/><use xlink:href="#w" transform="matrix(1,0,0,1,-681.3611111111111,130.4081325301204) translate(143.35493827160494 75.44444444444444)"/><use xlink:href="#x" transform="matrix(1,0,0,1,-681.3611111111111,130.4081325301204) translate(178.50308641975306 75.44444444444444)"/><use xlink:href="#y" transform="matrix(1,0,0,1,-681.3611111111111,130.4081325301204) translate(58.4135802469136 110.11111111111111)"/><use xlink:href="#z" transform="matrix(1,0,0,1,-681.3611111111111,130.4081325301204) translate(74.46296296296298 110.11111111111111)"/><use xlink:href="#A" transform="matrix(1,0,0,1,-681.3611111111111,130.4081325301204) translate(125.66049382716051 110.11111111111111)"/><use xlink:href="#y" transform="matrix(1,0,0,1,-681.3611111111111,130.4081325301204) translate(74.42283950617283 144.77777777777777)"/><use xlink:href="#B" transform="matrix(1,0,0,1,-681.3611111111111,130.4081325301204) translate(90.47222222222221 144.77777777777777)"/><use xlink:href="#C" transform="matrix(1,0,0,1,-681.3611111111111,130.4081325301204) translate(125.62037037037037 144.77777777777777)"/></g><defs><path fill="#fff" d="M240-174c0 40-23 61-54 70L253 0h-59l-57-94H76V0H24v-248c93 4 217-23 216 74zM76-134c48-2 112 12 112-38 0-48-66-32-112-35v73" id="D"/><path fill="#fff" d="M185-48c-13 30-37 53-82 52C43 2 14-33 14-96s30-98 90-98c62 0 83 45 84 108H66c0 31 8 55 39 56 18 0 30-7 34-22zm-45-69c5-46-57-63-70-21-2 6-4 13-4 21h74" id="E"/><path fill="#fff" d="M128 0H69L1-190h53L99-40l48-150h52" id="F"/><path fill="#fff" d="M25-224v-37h50v37H25zM25 0v-190h50V0H25" id="G"/><path fill="#fff" d="M231 0h-52l-39-155L100 0H48L-1-190h46L77-45c9-52 24-97 36-145h53l37 145 32-145h46" id="H"/><g id="a"><use transform="matrix(0.08024691358024691,0,0,0.08024691358024691,0,0)" xlink:href="#D"/><use transform="matrix(0.08024691358024691,0,0,0.08024691358024691,20.78395061728395,0)" xlink:href="#E"/><use transform="matrix(0.08024691358024691,0,0,0.08024691358024691,36.83333333333333,0)" xlink:href="#F"/><use transform="matrix(0.08024691358024691,0,0,0.08024691358024691,52.8827160493827,0)" xlink:href="#G"/><use transform="matrix(0.08024691358024691,0,0,0.08024691358024691,60.9074074074074,0)" xlink:href="#E"/><use transform="matrix(0.08024691358024691,0,0,0.08024691358024691,76.95679012345678,0)" xlink:href="#H"/></g><path fill="#fff" d="M137-138c1-29-70-34-71-4 15 46 118 7 119 86 1 83-164 76-172 9l43-7c4 19 20 25 44 25 33 8 57-30 24-41C81-84 22-81 20-136c-2-80 154-74 161-7" id="I"/><path fill="#fff" d="M123 10C108 53 80 86 19 72V37c35 8 53-11 59-39L3-190h52l48 148c12-52 28-100 44-148h51" id="J"/><path fill="#fff" d="M115-3C79 11 28 4 28-45v-112H4v-33h27l15-45h31v45h36v33H77v99c-1 23 16 31 38 25v30" id="K"/><path fill="#fff" d="M220-157c-53 9-28 100-34 157h-49v-107c1-27-5-49-29-50C55-147 81-57 75 0H25l-1-190h47c2 12-1 28 3 38 10-53 101-56 108 0 13-22 24-43 59-42 82 1 51 116 57 194h-49v-107c-1-25-5-48-29-50" id="L"/><g id="b"><use transform="matrix(0.08024691358024691,0,0,0.08024691358024691,0,0)" xlink:href="#I"/><use transform="matrix(0.08024691358024691,0,0,0.08024691358024691,16.049382716049383,0)" xlink:href="#J"/><use transform="matrix(0.08024691358024691,0,0,0.08024691358024691,32.098765432098766,0)" xlink:href="#I"/><use transform="matrix(0.08024691358024691,0,0,0.08024691358024691,48.14814814814815,0)" xlink:href="#K"/><use transform="matrix(0.08024691358024691,0,0,0.08024691358024691,57.697530864197525,0)" xlink:href="#E"/><use transform="matrix(0.08024691358024691,0,0,0.08024691358024691,73.74691358024691,0)" xlink:href="#L"/></g><path fill="#fff" d="M135-150c-39-12-60 13-60 57V0H25l-1-190h47c2 13-1 29 3 40 6-28 27-53 61-41v41" id="M"/><path fill="#fff" d="M84 4C32 4 15-41 15-95c0-55 18-99 73-99 29 0 47 12 58 34l2-30h48l-1 265h-49V-32C136-9 114 4 84 4zm21-34c32 0 41-29 41-66 0-36-9-64-40-64-33 0-39 30-40 65 0 43 13 65 39 65" id="N"/><path fill="#fff" d="M85 4C-2 5 27-109 22-190h50c7 57-23 150 33 157 60-5 35-97 40-157h50l1 190h-47c-2-12 1-28-3-38-12 25-28 42-61 42" id="O"/><path fill="#fff" d="M135-194c87-1 58 113 63 194h-50c-7-57 23-157-34-157-59 0-34 97-39 157H25l-1-190h47c2 12-1 28 3 38 12-26 28-41 61-42" id="P"/><g id="d"><use transform="matrix(0.08024691358024691,0,0,0.08024691358024691,0,0)" xlink:href="#M"/><use transform="matrix(0.08024691358024691,0,0,0.08024691358024691,11.234567901234568,0)" xlink:href="#E"/><use transform="matrix(0.08024691358024691,0,0,0.08024691358024691,27.28395061728395,0)" xlink:href="#N"/><use transform="matrix(0.08024691358024691,0,0,0.08024691358024691,44.858024691358025,0)" xlink:href="#O"/><use transform="matrix(0.08024691358024691,0,0,0.08024691358024691,62.4320987654321,0)" xlink:href="#G"/><use transform="matrix(0.08024691358024691,0,0,0.08024691358024691,70.4567901234568,0)" xlink:href="#M"/><use transform="matrix(0.08024691358024691,0,0,0.08024691358024691,81.69135802469137,0)" xlink:href="#E"/><use transform="matrix(0.08024691358024691,0,0,0.08024691358024691,97.74074074074075,0)" xlink:href="#L"/><use transform="matrix(0.08024691358024691,0,0,0.08024691358024691,123.41975308641976,0)" xlink:href="#E"/><use transform="matrix(0.08024691358024691,0,0,0.08024691358024691,139.46913580246914,0)" xlink:href="#P"/><use transform="matrix(0.08024691358024691,0,0,0.08024691358024691,157.04320987654322,0)" xlink:href="#K"/><use transform="matrix(0.08024691358024691,0,0,0.08024691358024691,166.5925925925926,0)" xlink:href="#I"/></g><path fill="#fff" d="M24 0v-248h52V0H24" id="Q"/><path fill="#fff" d="M133-34C117-15 103 5 69 4 32 3 11-16 11-54c-1-60 55-63 116-61 1-26-3-47-28-47-18 1-26 9-28 27l-52-2c7-38 36-58 82-57s74 22 75 68l1 82c-1 14 12 18 25 15v27c-30 8-71 5-69-32zm-48 3c29 0 43-24 42-57-32 0-66-3-65 30 0 17 8 27 23 27" id="R"/><path fill="#fff" d="M25 0v-261h50V0H25" id="S"/><g id="f"><use transform="matrix(0.08024691358024691,0,0,0.08024691358024691,0,0)" xlink:href="#Q"/><use transform="matrix(0.08024691358024691,0,0,0.08024691358024691,8.024691358024691,0)" xlink:href="#P"/><use transform="matrix(0.08024691358024691,0,0,0.08024691358024691,25.598765432098762,0)" xlink:href="#I"/><use transform="matrix(0.08024691358024691,0,0,0.08024691358024691,41.64814814814815,0)" xlink:href="#K"/><use transform="matrix(0.08024691358024691,0,0,0.08024691358024691,51.197530864197525,0)" xlink:href="#R"/><use transform="matrix(0.08024691358024691,0,0,0.08024691358024691,67.24691358024691,0)" xlink:href="#S"/><use transform="matrix(0.08024691358024691,0,0,0.08024691358024691,75.27160493827161,0)" xlink:href="#S"/></g><path fill="#fff" d="M114-157C55-157 80-60 75 0H25v-261h50l-1 109c12-26 28-41 61-42 86-1 58 113 63 194h-50c-7-57 23-157-34-157" id="T"/><g id="g"><use transform="matrix(0.08024691358024691,0,0,0.08024691358024691,0,0)" xlink:href="#K"/><use transform="matrix(0.08024691358024691,0,0,0.08024691358024691,9.549382716049383,0)" xlink:href="#T"/><use transform="matrix(0.08024691358024691,0,0,0.08024691358024691,27.123456790123456,0)" xlink:href="#E"/></g><path fill="#fff" d="M190-63c-7 42-38 67-86 67-59 0-84-38-90-98-12-110 154-137 174-36l-49 2c-2-19-15-32-35-32-30 0-35 28-38 64-6 74 65 87 74 30" id="U"/><path fill="#fff" d="M110-194c64 0 96 36 96 99 0 64-35 99-97 99-61 0-95-36-95-99 0-62 34-99 96-99zm-1 164c35 0 45-28 45-65 0-40-10-65-43-65-34 0-45 26-45 65 0 36 10 65 43 65" id="V"/><g id="i"><use transform="matrix(0.08024691358024691,0,0,0.08024691358024691,0,0)" xlink:href="#R"/><use transform="matrix(0.08024691358024691,0,0,0.08024691358024691,16.049382716049383,0)" xlink:href="#O"/><use transform="matrix(0.08024691358024691,0,0,0.08024691358024691,33.623456790123456,0)" xlink:href="#K"/><use transform="matrix(0.08024691358024691,0,0,0.08024691358024691,43.172839506172835,0)" xlink:href="#T"/><use transform="matrix(0.08024691358024691,0,0,0.08024691358024691,60.74691358024691,0)" xlink:href="#E"/><use transform="matrix(0.08024691358024691,0,0,0.08024691358024691,76.79629629629629,0)" xlink:href="#P"/><use transform="matrix(0.08024691358024691,0,0,0.08024691358024691,94.37037037037037,0)" xlink:href="#K"/><use transform="matrix(0.08024691358024691,0,0,0.08024691358024691,103.91975308641975,0)" xlink:href="#G"/><use transform="matrix(0.08024691358024691,0,0,0.08024691358024691,111.94444444444444,0)" xlink:href="#U"/><use transform="matrix(0.08024691358024691,0,0,0.08024691358024691,127.99382716049382,0)" xlink:href="#R"/><use transform="matrix(0.08024691358024691,0,0,0.08024691358024691,144.04320987654322,0)" xlink:href="#K"/><use transform="matrix(0.08024691358024691,0,0,0.08024691358024691,153.5925925925926,0)" xlink:href="#V"/><use transform="matrix(0.08024691358024691,0,0,0.08024691358024691,171.16666666666669,0)" xlink:href="#M"/></g><path fill="#fff" d="M168-19C124 19 11 11 16-68c3-43 29-60 59-75-25-44-12-111 53-106 37 3 64 15 64 52 0 43-40 52-69 68 12 22 27 41 43 59 14-19 21-38 28-64l37 13c-8 29-19 52-34 74 12 10 32 16 52 10v35c-28 11-65-2-81-17zm-58-139c19-9 43-14 43-39 0-14-10-22-25-22-34 0-33 41-18 61zM60-68c-3 40 55 47 79 25-18-20-34-42-48-67-18 8-30 20-31 42" id="W"/><use transform="matrix(0.08024691358024691,0,0,0.08024691358024691,0,0)" xlink:href="#W" id="j"/><g id="k"><use transform="matrix(0.08024691358024691,0,0,0.08024691358024691,0,0)" xlink:href="#E"/><use transform="matrix(0.08024691358024691,0,0,0.08024691358024691,16.049382716049383,0)" xlink:href="#P"/><use transform="matrix(0.08024691358024691,0,0,0.08024691358024691,33.623456790123456,0)" xlink:href="#M"/><use transform="matrix(0.08024691358024691,0,0,0.08024691358024691,44.858024691358025,0)" xlink:href="#V"/><use transform="matrix(0.08024691358024691,0,0,0.08024691358024691,62.4320987654321,0)" xlink:href="#S"/><use transform="matrix(0.08024691358024691,0,0,0.08024691358024691,70.4567901234568,0)" xlink:href="#S"/></g><path fill="#fff" d="M88-194c31-1 46 15 58 34l-1-101h50l1 261h-48c-2-10 0-23-3-31C134-8 116 4 84 4 32 4 16-41 15-95c0-56 19-97 73-99zm17 164c33 0 40-30 41-66 1-37-9-64-41-64s-38 30-39 65c0 43 13 65 39 65" id="X"/><g id="l"><use transform="matrix(0.08024691358024691,0,0,0.08024691358024691,0,0)" xlink:href="#X"/><use transform="matrix(0.08024691358024691,0,0,0.08024691358024691,17.574074074074073,0)" xlink:href="#E"/><use transform="matrix(0.08024691358024691,0,0,0.08024691358024691,33.623456790123456,0)" xlink:href="#F"/><use transform="matrix(0.08024691358024691,0,0,0.08024691358024691,49.672839506172835,0)" xlink:href="#G"/><use transform="matrix(0.08024691358024691,0,0,0.08024691358024691,57.697530864197525,0)" xlink:href="#U"/><use transform="matrix(0.08024691358024691,0,0,0.08024691358024691,73.74691358024691,0)" xlink:href="#E"/><use transform="matrix(0.08024691358024691,0,0,0.08024691358024691,89.79629629629629,0)" xlink:href="#I"/></g><g id="m"><use transform="matrix(0.08024691358024691,0,0,0.08024691358024691,0,0)" xlink:href="#D"/><use transform="matrix(0.08024691358024691,0,0,0.08024691358024691,20.78395061728395,0)" xlink:href="#O"/><use transform="matrix(0.08024691358024691,0,0,0.08024691358024691,38.358024691358025,0)" xlink:href="#P"/></g><g id="n"><use transform="matrix(0.08024691358024691,0,0,0.08024691358024691,0,0)" xlink:href="#N"/><use transform="matrix(0.08024691358024691,0,0,0.08024691358024691,17.574074074074073,0)" xlink:href="#O"/><use transform="matrix(0.08024691358024691,0,0,0.08024691358024691,35.148148148148145,0)" xlink:href="#E"/><use transform="matrix(0.08024691358024691,0,0,0.08024691358024691,51.197530864197525,0)" xlink:href="#M"/><use transform="matrix(0.08024691358024691,0,0,0.08024691358024691,62.4320987654321,0)" xlink:href="#G"/><use transform="matrix(0.08024691358024691,0,0,0.08024691358024691,70.4567901234568,0)" xlink:href="#E"/><use transform="matrix(0.08024691358024691,0,0,0.08024691358024691,86.50617283950619,0)" xlink:href="#I"/></g><g id="o"><use transform="matrix(0.08024691358024691,0,0,0.08024691358024691,0,0)" xlink:href="#K"/><use transform="matrix(0.08024691358024691,0,0,0.08024691358024691,9.549382716049383,0)" xlink:href="#V"/></g><path fill="#fff" d="M121-226c-27-7-43 5-38 36h38v33H83V0H34v-157H6v-33h28c-9-59 32-81 87-68v32" id="Y"/><g id="p"><use transform="matrix(0.08024691358024691,0,0,0.08024691358024691,0,0)" xlink:href="#Y"/><use transform="matrix(0.08024691358024691,0,0,0.08024691358024691,9.549382716049383,0)" xlink:href="#G"/><use transform="matrix(0.08024691358024691,0,0,0.08024691358024691,17.574074074074076,0)" xlink:href="#P"/><use transform="matrix(0.08024691358024691,0,0,0.08024691358024691,35.14814814814815,0)" xlink:href="#X"/></g><path fill="#fff" d="M195-6C206 82 75 100 31 46c-4-6-6-13-8-21l49-6c3 16 16 24 34 25 40 0 42-37 40-79-11 22-30 35-61 35-53 0-70-43-70-97 0-56 18-96 73-97 30 0 46 14 59 34l2-30h47zm-90-29c32 0 41-27 41-63 0-35-9-62-40-62-32 0-39 29-40 63 0 36 9 62 39 62" id="Z"/><g id="q"><use transform="matrix(0.08024691358024691,0,0,0.08024691358024691,0,0)" xlink:href="#L"/><use transform="matrix(0.08024691358024691,0,0,0.08024691358024691,25.679012345679013,0)" xlink:href="#G"/><use transform="matrix(0.08024691358024691,0,0,0.08024691358024691,33.7037037037037,0)" xlink:href="#I"/><use transform="matrix(0.08024691358024691,0,0,0.08024691358024691,49.753086419753096,0)" xlink:href="#U"/><use transform="matrix(0.08024691358024691,0,0,0.08024691358024691,65.80246913580247,0)" xlink:href="#V"/><use transform="matrix(0.08024691358024691,0,0,0.08024691358024691,83.37654320987654,0)" xlink:href="#P"/><use transform="matrix(0.08024691358024691,0,0,0.08024691358024691,100.9506172839506,0)" xlink:href="#Y"/><use transform="matrix(0.08024691358024691,0,0,0.08024691358024691,110.5,0)" xlink:href="#G"/><use transform="matrix(0.08024691358024691,0,0,0.08024691358024691,118.5246913580247,0)" xlink:href="#Z"/><use transform="matrix(0.08024691358024691,0,0,0.08024691358024691,136.09876543209876,0)" xlink:href="#O"/><use transform="matrix(0.08024691358024691,0,0,0.08024691358024691,153.67283950617283,0)" xlink:href="#M"/><use transform="matrix(0.08024691358024691,0,0,0.08024691358024691,164.9074074074074,0)" xlink:href="#R"/><use transform="matrix(0.08024691358024691,0,0,0.08024691358024691,180.95679012345678,0)" xlink:href="#K"/><use transform="matrix(0.08024691358024691,0,0,0.08024691358024691,190.50617283950615,0)" xlink:href="#G"/><use transform="matrix(0.08024691358024691,0,0,0.08024691358024691,198.53086419753086,0)" xlink:href="#V"/><use transform="matrix(0.08024691358024691,0,0,0.08024691358024691,216.10493827160494,0)" xlink:href="#P"/><use transform="matrix(0.08024691358024691,0,0,0.08024691358024691,233.679012345679,0)" xlink:href="#I"/></g><path fill="#fff" d="M169-182c-1-43-94-46-97-3 18 66 151 10 154 114 3 95-165 93-204 36-6-8-10-19-12-30l50-8c3 46 112 56 116 5-17-69-150-10-154-114-4-87 153-88 188-35 5 8 8 18 10 28" id="aa"/><g id="s"><use transform="matrix(0.08024691358024691,0,0,0.08024691358024691,0,0)" xlink:href="#aa"/><use transform="matrix(0.08024691358024691,0,0,0.08024691358024691,19.25925925925926,0)" xlink:href="#G"/><use transform="matrix(0.08024691358024691,0,0,0.08024691358024691,27.28395061728395,0)" xlink:href="#L"/><use transform="matrix(0.08024691358024691,0,0,0.08024691358024691,52.96296296296296,0)" xlink:href="#O"/><use transform="matrix(0.08024691358024691,0,0,0.08024691358024691,70.53703703703704,0)" xlink:href="#S"/><use transform="matrix(0.08024691358024691,0,0,0.08024691358024691,78.56172839506173,0)" xlink:href="#R"/><use transform="matrix(0.08024691358024691,0,0,0.08024691358024691,94.6111111111111,0)" xlink:href="#K"/><use transform="matrix(0.08024691358024691,0,0,0.08024691358024691,104.1604938271605,0)" xlink:href="#E"/></g><path fill="#fff" d="M135-194c53 0 70 44 70 98 0 56-19 98-73 100-31 1-45-17-59-34 3 33 2 69 2 105H25l-1-265h48c2 10 0 23 3 31 11-24 29-35 60-35zM114-30c33 0 39-31 40-66 0-38-9-64-40-64-56 0-55 130 0 130" id="ab"/><g id="t"><use transform="matrix(0.08024691358024691,0,0,0.08024691358024691,0,0)" xlink:href="#ab"/><use transform="matrix(0.08024691358024691,0,0,0.08024691358024691,17.574074074074073,0)" xlink:href="#V"/><use transform="matrix(0.08024691358024691,0,0,0.08024691358024691,35.148148148148145,0)" xlink:href="#S"/><use transform="matrix(0.08024691358024691,0,0,0.08024691358024691,43.172839506172835,0)" xlink:href="#G"/><use transform="matrix(0.08024691358024691,0,0,0.08024691358024691,51.197530864197525,0)" xlink:href="#U"/><use transform="matrix(0.08024691358024691,0,0,0.08024691358024691,67.24691358024691,0)" xlink:href="#J"/></g><g id="v"><use transform="matrix(0.08024691358024691,0,0,0.08024691358024691,0,0)" xlink:href="#M"/><use transform="matrix(0.08024691358024691,0,0,0.08024691358024691,11.234567901234568,0)" xlink:href="#O"/><use transform="matrix(0.08024691358024691,0,0,0.08024691358024691,28.80864197530864,0)" xlink:href="#S"/><use transform="matrix(0.08024691358024691,0,0,0.08024691358024691,36.83333333333333,0)" xlink:href="#E"/><use transform="matrix(0.08024691358024691,0,0,0.08024691358024691,52.8827160493827,0)" xlink:href="#I"/></g><g id="w"><use transform="matrix(0.08024691358024691,0,0,0.08024691358024691,0,0)" xlink:href="#K"/><use transform="matrix(0.08024691358024691,0,0,0.08024691358024691,9.549382716049383,0)" xlink:href="#V"/></g><g id="x"><use transform="matrix(0.08024691358024691,0,0,0.08024691358024691,0,0)" xlink:href="#I"/><use transform="matrix(0.08024691358024691,0,0,0.08024691358024691,16.049382716049383,0)" xlink:href="#E"/><use transform="matrix(0.08024691358024691,0,0,0.08024691358024691,32.098765432098766,0)" xlink:href="#E"/></g><g id="z"><use transform="matrix(0.08024691358024691,0,0,0.08024691358024691,0,0)" xlink:href="#K"/><use transform="matrix(0.08024691358024691,0,0,0.08024691358024691,9.549382716049383,0)" xlink:href="#T"/><use transform="matrix(0.08024691358024691,0,0,0.08024691358024691,27.123456790123456,0)" xlink:href="#E"/></g><g id="A"><use transform="matrix(0.08024691358024691,0,0,0.08024691358024691,0,0)" xlink:href="#G"/><use transform="matrix(0.08024691358024691,0,0,0.08024691358024691,8.024691358024691,0)" xlink:href="#L"/><use transform="matrix(0.08024691358024691,0,0,0.08024691358024691,33.7037037037037,0)" xlink:href="#ab"/><use transform="matrix(0.08024691358024691,0,0,0.08024691358024691,51.27777777777777,0)" xlink:href="#R"/><use transform="matrix(0.08024691358024691,0,0,0.08024691358024691,67.32716049382715,0)" xlink:href="#U"/><use transform="matrix(0.08024691358024691,0,0,0.08024691358024691,83.37654320987654,0)" xlink:href="#K"/></g><g id="B"><use transform="matrix(0.08024691358024691,0,0,0.08024691358024691,0,0)" xlink:href="#K"/><use transform="matrix(0.08024691358024691,0,0,0.08024691358024691,9.549382716049383,0)" xlink:href="#V"/></g><g id="C"><use transform="matrix(0.08024691358024691,0,0,0.08024691358024691,0,0)" xlink:href="#O"/><use transform="matrix(0.08024691358024691,0,0,0.08024691358024691,17.574074074074073,0)" xlink:href="#I"/><use transform="matrix(0.08024691358024691,0,0,0.08024691358024691,33.623456790123456,0)" xlink:href="#E"/><use transform="matrix(0.08024691358024691,0,0,0.08024691358024691,49.672839506172835,0)" xlink:href="#M"/><use transform="matrix(0.08024691358024691,0,0,0.08024691358024691,60.907407407407405,0)" xlink:href="#I"/></g></defs></g></svg>